<?xml version="1.0" encoding="UTF-8" standalone="no"?>
<svg
   version="1.0"
   width="1292.000000pt"
   height="444.000000pt"
   viewBox="0 0 1292.000000 444.000000"
   preserveAspectRatio="xMidYMid meet"
   id="svg2"
   sodipodi:docname="artacho.svg"
   inkscape:version="1.4 (86a8ad7, 2024-10-11)"
   xmlns:inkscape="http://www.inkscape.org/namespaces/inkscape"
   xmlns:sodipodi="http://sodipodi.sourceforge.net/DTD/sodipodi-0.dtd"
   xmlns="http://www.w3.org/2000/svg"
   xmlns:svg="http://www.w3.org/2000/svg">
  <defs
     id="defs2" />
  <sodipodi:namedview
     id="namedview2"
     pagecolor="#ffffff"
     bordercolor="#000000"
     borderopacity="0.25"
     inkscape:showpageshadow="2"
     inkscape:pageopacity="0.0"
     inkscape:pagecheckerboard="0"
     inkscape:deskcolor="#d1d1d1"
     inkscape:document-units="pt"
     inkscape:zoom="1.0309598"
     inkscape:cx="899.16216"
     inkscape:cy="296.32583"
     inkscape:window-width="1920"
     inkscape:window-height="1009"
     inkscape:window-x="-8"
     inkscape:window-y="-8"
     inkscape:window-maximized="1"
     inkscape:current-layer="g2" />
  <g
     transform="translate(0.000000,444.000000) scale(0.100000,-0.100000)"
     fill="#000000"
     stroke="none"
     id="g2">
    <path
       d="m 10053.814,4261 c -48.07,-51.2267 -300.4365,-524.3997 -411.264,-769.7486 -332.4826,-733.3507 -660.9593,-1567.8068 -826.533,-2098.9468 l -33.3817,-109.1938 -144.2093,-93.0169 C 8341.9957,995.97167 7932.0674,766.79958 7774.5054,706.13638 c -133.5271,-51.22671 -271.0601,-86.27656 -343.1647,-86.27656 -80.1163,0 -126.8508,37.74599 -145.5446,118.63026 -28.0407,129.41483 78.781,409.81362 236.343,621.46082 82.7869,111.8899 212.3082,227.824 276.4012,246.697 46.7345,14.8288 54.7461,13.4807 72.1047,-10.7846 25.3701,-33.7017 14.6879,-98.4092 -37.3876,-230.5201 -60.0872,-153.6801 -37.3876,-211.6472 46.7345,-121.3264 57.4166,62.0112 114.8333,217.0394 114.8333,312.7525 0,91.6688 -16.0233,133.459 -61.4225,164.4647 -90.7984,59.3151 -243.0194,-5.3923 -391.2345,-165.8128 -52.0756,-56.619 -110.8275,-125.3706 -130.8566,-152.332 -18.6938,-26.9615 -62.7577,-70.0997 -96.1395,-95.7131 -33.3818,-25.6133 -150.8857,-119.9783 -261.7132,-207.6029 -323.1356,-258.82971 -604.8779,-427.3386 -717.0407,-431.38282 -80.1163,-1.34807 -109.4922,40.44214 -97.4748,138.85133 16.0233,125.37062 57.4167,261.52579 140.2035,461.04029 44.064,105.1496 80.1163,203.5588 80.1163,217.0395 0,14.8288 -28.0407,55.2709 -62.7578,90.3208 -36.0523,33.7017 -74.7752,82.2323 -86.7926,106.4976 -44.064,84.9285 -161.5678,102.4534 -279.0717,43.1383 -69.4341,-36.398 -300.436,-261.5258 -383.2229,-377.46 -84.1221,-114.586 -614.2248,-655.16254 -761.1046,-776.48894 -213.6434,-173.90118 -443.3101,-318.14479 -539.4496,-335.66972 -70.7694,-13.48071 -101.4806,1.34808 -132.1919,64.70742 -26.7054,49.87863 -28.0407,71.44777 -21.3643,225.12788 4.0058,105.14955 18.6938,226.47595 40.0581,323.53708 66.7636,307.36018 244.3547,887.03078 365.8644,1193.04298 30.7112,74.1439 82.7868,207.6029 116.1686,296.5756 108.1569,277.7027 154.8914,370.7196 193.6143,380.1561 60.0872,16.1769 827.8682,12.1326 996.1124,-5.3923 249.6957,-25.6133 353.8469,-51.2267 353.8469,-84.9285 0,-25.6133 78.781,-14.8287 93.469,12.1327 50.7403,97.0611 -40.0582,150.9839 -300.4361,177.9454 -328.4767,32.3537 -459.3333,40.4421 -741.0755,40.4421 -316.4593,0 -347.1706,2.6961 -347.1706,31.0056 0,31.0057 133.5272,328.9294 269.7248,599.8917 82.7868,165.8128 128.1861,270.9623 122.845,287.1392 -12.0175,40.4421 -66.7636,29.6575 -121.5097,-26.9615 -54.7461,-55.2709 -241.6841,-405.7694 -372.5407,-694.2566 -42.7287,-95.7131 -86.7926,-177.9454 -98.8101,-184.6858 -12.0174,-6.7403 -86.7926,-17.5249 -166.9089,-25.6133 -544.7907,-52.5748 -973.4128,-109.1938 -1118.9573,-150.984 -70.7694,-18.873 -108.157,-57.967 -89.4632,-93.0169 17.3585,-32.3537 38.7228,-33.7018 149.5504,-8.0884 228.3314,53.9228 1117.622,136.1552 1145.6627,107.8457 9.3469,-9.4365 4.0059,-37.746 -13.3527,-79.5362 -134.8624,-343.7582 -253.7015,-657.8587 -253.7015,-669.9914 0,-8.0884 -13.3527,-45.8344 -30.7113,-83.5804 -17.3585,-37.746 -64.093,-175.2492 -104.1511,-306.0121 l -72.1047,-235.9125 -86.7926,-67.4036 c -46.7345,-36.3979 -209.6376,-169.8569 -360.5233,-295.22753 -583.5135,-488.00176 -883.9496,-686.16822 -953.3837,-626.85309 -30.7112,24.26528 -26.7054,55.27092 25.3702,211.64717 44.0639,128.06676 114.8333,293.87951 305.7771,714.47775 82.7868,180.6415 96.1395,264.2219 50.7403,304.664 -33.3818,31.0057 -70.7694,28.3095 -244.3546,-12.1326 -129.5213,-31.0056 -150.8857,-32.3537 -168.2442,-16.1769 -16.0233,17.525 -8.0116,33.7018 64.093,133.4591 45.3992,62.0113 100.1454,140.1994 121.5097,172.5531 78.781,126.7187 24.0349,219.7356 -93.469,157.7243 -93.469,-49.8786 -272.3953,-292.5314 -295.095,-400.3771 -8.0116,-37.746 -22.6996,-83.5804 -33.3817,-105.1496 -37.3876,-72.7958 -136.1977,-176.5973 -261.7132,-273.6584 -69.4341,-53.9228 -174.9206,-137.5033 -233.6725,-184.6857 -224.3256,-181.98966 -548.7965,-370.71962 -640.9302,-370.71962 -65.4283,0 -100.1454,37.746 -100.1454,106.49762 0,95.71306 60.0872,301.9679 146.8799,506.8748 52.0756,124.0225 78.781,203.5587 74.7752,222.4317 -4.0058,16.1769 -28.0407,43.1383 -52.0756,57.9671 -25.3702,14.8287 -61.4225,57.967 -80.1163,94.3649 -64.093,115.9342 -164.2384,136.1552 -307.1124,57.9671 C 995.33299,1664.615 764.33105,1428.7025 674.86788,1293.8954 498.61206,1022.9331 431.8485,830.15892 482.58881,730.40166 c 28.04069,-55.27092 73.43992,-66.05549 160.23255,-39.09407 104.15117,33.70178 210.97287,111.88991 405.92244,297.92373 225.6609,215.69138 237.6783,218.38748 180.2617,33.70178 -26.7055,-87.62463 -34.7171,-142.89555 -36.0524,-244.00088 l -1.3352,-132.11097 50.7403,-49.87864 c 48.0697,-49.87863 52.0756,-51.2267 146.8798,-51.2267 120.1744,1.34807 229.6667,45.83442 419.2752,171.20504 178.9264,119.97833 574.1667,435.42695 706.3585,564.84185 60.0872,57.967 120.1745,106.4976 133.5272,107.8456 14.688,0 49.405,0 78.781,-1.348 30.7112,-1.3481 98.8101,10.7845 153.5562,25.6133 113.498,32.3537 181.5969,36.398 190.9438,12.1327 6.6763,-20.2211 -10.6822,-63.3594 -100.1454,-253.4374 -121.5097,-257.4816 -252.3663,-576.97446 -276.4011,-676.73172 -37.3876,-159.0724 -8.0117,-252.08931 90.7984,-281.74687 144.2093,-43.13828 470.0155,157.72432 1024.1531,634.94151 160.2326,137.50326 304.4419,260.17768 320.4651,272.31038 l 28.0407,22.9172 -25.3701,-103.8015 c -34.7171,-145.59166 -74.7752,-381.50411 -84.1221,-501.48245 -16.0233,-181.9896 36.0523,-353.19464 126.8507,-415.20591 62.7578,-43.138278 185.6028,-41.790207 296.4303,4.04421 176.2558,71.44777 320.4651,183.33768 694.3411,539.22846 117.5038,111.88991 216.3139,203.55875 221.655,204.90682 5.3411,2.69614 9.3469,-26.96143 9.3469,-64.70742 0,-57.96706 5.3411,-74.14391 37.3876,-101.10533 49.405,-41.79021 92.1337,-40.44214 189.6085,6.74035 108.157,52.57478 160.2326,91.66884 363.1938,283.09494 97.4748,88.97273 181.5969,163.11663 189.6085,163.11663 21.3644,0 18.6938,-28.3095 -20.029,-157.7243 -48.0698,-164.46472 -50.7403,-316.79676 -8.0117,-378.80804 98.8101,-138.85132 283.0776,-107.84569 603.5427,101.10534 62.7577,41.79021 156.2267,109.19376 206.967,150.98397 52.0756,41.79021 133.5272,107.84569 182.9322,146.93973 l 88.1279,70.0997 -30.7112,-90.3207 c -57.4167,-173.90122 -53.4109,-334.32169 9.3469,-416.55403 70.7693,-90.32076 221.655,-109.19376 419.2752,-52.57477 176.2558,51.2267 559.4786,248.04509 846.562,436.77505 136.1976,88.97265 248.3604,159.07235 251.031,156.37625 2.6705,-1.3481 -20.0291,-94.365 -50.7403,-203.55874 -61.4225,-227.82402 -128.1861,-539.22846 -140.2035,-659.20679 -9.3469,-91.66884 10.6821,-145.59169 54.7461,-152.33204 41.3934,-5.39229 101.4806,71.44777 185.6027,238.60859 248.3605,501.48247 739.7403,1156.64508 895.9671,1195.73908 81.4515,21.5692 93.4689,-12.1326 120.1744,-323.537 21.3643,-265.57006 57.4166,-447.55967 98.8101,-506.8748 14.6879,-21.56914 54.7461,-51.2267 88.1279,-67.40355 130.8566,-64.70742 317.7946,4.04421 571.4956,211.64717 80.117,64.70741 157.562,128.06676 172.25,138.85132 26.706,18.87296 26.706,18.87296 17.359,-6.74035 -5.341,-14.82878 -18.694,-68.75163 -29.376,-118.63026 -25.37,-122.67448 -13.353,-215.69139 36.052,-270.9623 30.712,-36.39792 45.4,-41.79021 101.481,-41.79021 92.134,1.34807 156.227,37.74599 279.072,160.42047 128.186,130.7629 177.591,199.51453 265.719,378.80801 l 68.099,134.8071 h 65.428 c 37.387,-1.3481 121.509,-8.0884 188.273,-17.5249 190.944,-25.6134 594.196,16.1768 705.023,74.1439 33.382,17.5249 36.053,22.9172 18.694,39.094 -16.023,16.1769 -44.064,17.525 -172.25,5.3923 -84.122,-6.7403 -216.314,-13.4807 -295.095,-13.4807 -148.215,0 -420.61,33.7018 -445.98,55.2709 -8.012,6.7404 -18.694,55.271 -22.7,109.1938 -9.347,109.1938 -29.376,146.9398 -106.822,198.1665 -40.058,26.9614 -49.405,40.4421 -49.405,78.1881 0,39.0941 -4.006,44.4863 -34.717,44.4863 -72.105,0 -343.165,-316.7967 -420.61,-489.3498 -32.047,-70.0997 -515.415,-454.29997 -659.624,-523.0516 -102.816,-49.87863 -177.591,-51.2267 -218.985,-6.74036 -48.0696,51.22671 -80.1161,195.47032 -94.8041,419.25016 -24.0349,346.4543 -44.064,417.902 -128.1861,458.3442 -58.7519,28.3095 -93.469,25.6133 -178.9263,-14.8288 -142.8741,-67.4036 -476.6919,-466.4326 -725.0523,-868.15784 -89.4632,-144.24361 -112.1628,-171.20504 -128.1861,-155.02818 -10.6822,10.78457 -8.0116,36.39792 5.3411,87.62462 10.6822,40.44214 41.3934,160.42047 66.7636,265.57002 26.7054,105.14958 61.4224,226.47598 78.781,269.61418 17.3585,43.1383 74.7752,211.6472 126.8507,374.7638 209.6376,651.1184 566.1551,1508.4916 924.0078,2225.6655 93.4687,186.0338 170.9147,350.4985 172.2497,363.9792 9.347,84.9285 -25.37,105.1496 -77.445,47.1825 z M 1261.052,1624.1728 c 37.3876,-26.9614 62.7577,-105.1495 50.7403,-164.4647 -17.3585,-98.4091 -627.57753,-663.25096 -699.68218,-648.42217 -54.74612,12.13264 22.69962,207.60297 162.9031,413.85787 89.46318,132.1109 305.77718,351.8465 383.22288,389.5925 72.1046,35.0499 66.7636,35.0499 102.8159,9.4365 z m 4932.4922,6.7404 c 21.3643,0 52.0756,-78.1881 52.0756,-132.111 0,-72.7958 -37.3876,-121.3264 -279.0717,-355.8908 -208.3024,-202.21064 -384.5582,-339.7139 -425.9516,-331.62547 -82.7868,17.52492 109.4923,370.71957 339.1589,626.85307 96.1396,106.4976 248.3605,212.9953 283.0776,199.5145 10.6821,-4.0442 24.0348,-6.7403 30.7112,-6.7403 z m 5158.1528,-75.492 c 29.376,-28.3095 28.041,-99.7573 -1.335,-99.7573 -52.076,0 -97.475,94.365 -53.411,111.8899 26.706,12.1327 33.382,10.7846 54.746,-12.1326 z m -117.504,-176.5973 c 113.498,-105.1496 112.163,-95.7131 38.723,-253.4374 -114.833,-242.6528 -327.141,-466.43261 -421.945,-442.16733 -36.053,10.78457 -45.4,63.35934 -26.706,159.07239 21.364,102.45341 112.163,339.71394 156.227,404.42134 17.358,26.9614 40.058,68.7516 50.74,91.6688 16.023,41.7903 82.787,130.7629 97.475,130.7629 2.67,0 50.74,-40.4421 105.486,-90.3207 z"
       id="path2"
       sodipodi:nodetypes="ccccccsccccccscccsccccscccccccccccccsccssccccsccccscsscccccccccccccccccssccccccccccccccccccccccccccccccccscccscccccccccccccccccccccccccccccccccscccsscccccccsccsccccccccccssccccscsccccccccsc" />
  </g>
</svg>
