<?xml version="1.0" encoding="UTF-8" standalone="no"?>
<!-- Created with Inkscape (http://www.inkscape.org/) -->

<svg
   width="210mm"
   height="297mm"
   viewBox="0 0 210 297"
   version="1.1"
   id="svg1"
   inkscape:version="1.4 (86a8ad7, 2024-10-11)"
   sodipodi:docname="favicon.svg"
   xmlns:inkscape="http://www.inkscape.org/namespaces/inkscape"
   xmlns:sodipodi="http://sodipodi.sourceforge.net/DTD/sodipodi-0.dtd"
   xmlns="http://www.w3.org/2000/svg"
   xmlns:svg="http://www.w3.org/2000/svg">
  <sodipodi:namedview
     id="namedview1"
     pagecolor="#ffffff"
     bordercolor="#000000"
     borderopacity="0.25"
     inkscape:showpageshadow="2"
     inkscape:pageopacity="0.0"
     inkscape:pagecheckerboard="0"
     inkscape:deskcolor="#d1d1d1"
     inkscape:document-units="mm"
     inkscape:zoom="0.71891835"
     inkscape:cx="397.12437"
     inkscape:cy="561.25984"
     inkscape:window-width="1920"
     inkscape:window-height="1009"
     inkscape:window-x="-8"
     inkscape:window-y="-8"
     inkscape:window-maximized="1"
     inkscape:current-layer="layer1" />
  <defs
     id="defs1" />
  <g
     inkscape:label="Capa 1"
     inkscape:groupmode="layer"
     id="layer1">
    <g
       transform="matrix(0.06506996,0,0,-0.07008113,-32.284203,314.55262)"
       fill="#000000"
       stroke="none"
       id="g2">
      <path
         d="m 3616,4355 c -73,-111 -357,-925 -562,-1609 -40,-134 -31,-129 -274,-144 -198,-12 -679,-70 -943,-114 -110,-18 -131,-19 -142,-7 -12,12 -6,39 36,178 28,90 59,187 70,215 11,28 42,114 69,191 126,366 324,799 459,1004 33,51 61,102 61,113 0,31 -19,58 -41,58 -37,0 -70,-32 -141,-139 -55,-81 -115,-149 -260,-294 -103,-103 -188,-190 -188,-193 0,-20 24,-44 45,-44 22,0 119,72 154,113 17,21 41,22 41,3 0,-8 -36,-100 -79,-204 -90,-215 -169,-435 -279,-767 -90,-275 -96,-284 -219,-311 -208,-45 -648,-189 -773,-252 -90,-46 -115,-76 -106,-127 13,-66 64,-106 233,-183 271,-124 443,-261 496,-395 35,-88 34,-126 -9,-376 -41,-238 -47,-344 -22,-383 42,-63 93,-41 125,53 44,126 56,221 58,454 2,218 2,222 49,460 26,132 64,313 86,402 70,294 67,291 357,339 270,45 467,70 738,94 242,22 311,24 319,12 3,-5 -23,-112 -59,-238 -183,-660 -327,-1373 -351,-1746 -6,-101 -6,-105 18,-132 20,-23 30,-28 51,-22 33,8 50,40 76,143 27,104 27,139 1,153 -28,15 -26,72 5,257 71,414 130,678 262,1173 94,356 100,374 127,399 24,23 30,23 163,19 123,-4 143,-7 181,-28 23,-13 42,-27 42,-31 0,-13 32,-19 51,-9 43,24 12,109 -49,133 -47,19 -172,37 -253,37 -67,0 -99,12 -99,37 0,51 238,805 370,1173 97,271 170,494 170,521 0,24 -15,39 -40,39 -4,0 -15,-11 -24,-25 z M 1494,2291 c 3,-4 -5,-53 -19,-107 -25,-107 -105,-506 -105,-532 -1,-10 -6,-30 -13,-46 l -12,-28 -61,60 c -132,130 -258,208 -531,327 -34,15 -70,36 -79,46 -16,17 -16,21 -3,35 27,26 278,114 529,184 248,69 285,77 294,61 z"
         id="path1" />
    </g>
  </g>
</svg>
