<?xml version="1.0" standalone="no"?>
<!DOCTYPE svg PUBLIC "-//W3C//DTD SVG 20010904//EN"
 "http://www.w3.org/TR/2001/REC-SVG-20010904/DTD/svg10.dtd">
<svg version="1.0" xmlns="http://www.w3.org/2000/svg"
 width="1292.000000pt" height="444.000000pt" viewBox="0 0 1292.000000 444.000000"
 preserveAspectRatio="xMidYMid meet">

<g transform="translate(0.000000,444.000000) scale(0.100000,-0.100000)"
fill="#000000" stroke="none">
<path d="M3616 4355 c-73 -111 -357 -925 -562 -1609 -40 -134 -31 -129 -274
-144 -198 -12 -679 -70 -943 -114 -110 -18 -131 -19 -142 -7 -12 12 -6 39 36
178 28 90 59 187 70 215 11 28 42 114 69 191 126 366 324 799 459 1004 33 51
61 102 61 113 0 31 -19 58 -41 58 -37 0 -70 -32 -141 -139 -55 -81 -115 -149
-260 -294 -103 -103 -188 -190 -188 -193 0 -20 24 -44 45 -44 22 0 119 72 154
113 17 21 41 22 41 3 0 -8 -36 -100 -79 -204 -90 -215 -169 -435 -279 -767
-90 -275 -96 -284 -219 -311 -208 -45 -648 -189 -773 -252 -90 -46 -115 -76
-106 -127 13 -66 64 -106 233 -183 271 -124 443 -261 496 -395 35 -88 34 -126
-9 -376 -41 -238 -47 -344 -22 -383 42 -63 93 -41 125 53 44 126 56 221 58
454 2 218 2 222 49 460 26 132 64 313 86 402 70 294 67 291 357 339 270 45
467 70 738 94 242 22 311 24 319 12 3 -5 -23 -112 -59 -238 -183 -660 -327
-1373 -351 -1746 -6 -101 -6 -105 18 -132 20 -23 30 -28 51 -22 33 8 50 40 76
143 27 104 27 139 1 153 -28 15 -26 72 5 257 71 414 130 678 262 1173 94 356
100 374 127 399 24 23 30 23 163 19 123 -4 143 -7 181 -28 23 -13 42 -27 42
-31 0 -13 32 -19 51 -9 43 24 12 109 -49 133 -47 19 -172 37 -253 37 -67 0
-99 12 -99 37 0 51 238 805 370 1173 97 271 170 494 170 521 0 24 -15 39 -40
39 -4 0 -15 -11 -24 -25z m-2122 -2064 c3 -4 -5 -53 -19 -107 -25 -107 -105
-506 -105 -532 -1 -10 -6 -30 -13 -46 l-12 -28 -61 60 c-132 130 -258 208
-531 327 -34 15 -70 36 -79 46 -16 17 -16 21 -3 35 27 26 278 114 529 184 248
69 285 77 294 61z"/>
<path d="M10482 4261 c-36 -38 -225 -389 -308 -571 -249 -544 -495 -1163 -619
-1557 l-25 -81 -108 -69 c-222 -144 -529 -314 -647 -359 -100 -38 -203 -64
-257 -64 -60 0 -95 28 -109 88 -21 96 59 304 177 461 62 83 159 169 207 183
35 11 41 10 54 -8 19 -25 11 -73 -28 -171 -45 -114 -28 -157 35 -90 43 46 86
161 86 232 0 68 -12 99 -46 122 -68 44 -182 -4 -293 -123 -39 -42 -83 -93 -98
-113 -14 -20 -47 -52 -72 -71 -25 -19 -113 -89 -196 -154 -242 -192 -453 -317
-537 -320 -60 -1 -82 30 -73 103 12 93 43 194 105 342 33 78 60 151 60 161 0
11 -21 41 -47 67 -27 25 -56 61 -65 79 -33 63 -121 76 -209 32 -52 -27 -225
-194 -287 -280 -63 -85 -460 -486 -570 -576 -160 -129 -332 -236 -404 -249
-53 -10 -76 1 -99 48 -20 37 -21 53 -16 167 3 78 14 168 30 240 50 228 183
658 274 885 23 55 62 154 87 220 81 206 116 275 145 282 45 12 620 9 746 -4
187 -19 265 -38 265 -63 0 -19 59 -11 70 9 38 72 -30 112 -225 132 -246 24
-344 30 -555 30 -237 0 -260 2 -260 23 0 23 100 244 202 445 62 123 96 201 92
213 -9 30 -50 22 -91 -20 -41 -41 -181 -301 -279 -515 -32 -71 -65 -132 -74
-137 -9 -5 -65 -13 -125 -19 -408 -39 -729 -81 -838 -112 -53 -14 -81 -43 -67
-69 13 -24 29 -25 112 -6 171 40 837 101 858 80 7 -7 3 -28 -10 -59 -101 -255
-190 -488 -190 -497 0 -6 -10 -34 -23 -62 -13 -28 -48 -130 -78 -227 l-54
-175 -65 -50 c-35 -27 -157 -126 -270 -219 -437 -362 -662 -509 -714 -465 -23
18 -20 41 19 157 33 95 86 218 229 530 62 134 72 196 38 226 -25 23 -53 21
-183 -9 -97 -23 -113 -24 -126 -12 -12 13 -6 25 48 99 34 46 75 104 91 128 59
94 18 163 -70 117 -70 -37 -204 -217 -221 -297 -6 -28 -17 -62 -25 -78 -28
-54 -102 -131 -196 -203 -52 -40 -131 -102 -175 -137 -168 -135 -411 -275
-480 -275 -49 0 -75 28 -75 79 0 71 45 224 110 376 39 92 59 151 56 165 -3 12
-21 32 -39 43 -19 11 -46 43 -60 70 -48 86 -123 101 -230 43 -69 -37 -242
-212 -309 -312 -132 -201 -182 -344 -144 -418 21 -41 55 -49 120 -29 78 25
158 83 304 221 169 160 178 162 135 25 -20 -65 -26 -106 -27 -181 l-1 -98 38
-37 c36 -37 39 -38 110 -38 90 1 172 34 314 127 134 89 430 323 529 419 45 43
90 79 100 80 11 0 37 0 59 -1 23 -1 74 8 115 19 85 24 136 27 143 9 5 -15 -8
-47 -75 -188 -91 -191 -189 -428 -207 -502 -28 -118 -6 -187 68 -209 108 -32
352 117 767 471 120 102 228 193 240 202 l21 17 -19 -77 c-26 -108 -56 -283
-63 -372 -12 -135 27 -262 95 -308 47 -32 139 -31 222 3 132 53 240 136 520
400 88 83 162 151 166 152 4 2 7 -20 7 -48 0 -43 4 -55 28 -75 37 -31 69 -30
142 5 81 39 120 68 272 210 73 66 136 121 142 121 16 0 14 -21 -15 -117 -36
-122 -38 -235 -6 -281 74 -103 212 -80 452 75 47 31 117 81 155 112 39 31 100
80 137 109 l66 52 -23 -67 c-43 -129 -40 -248 7 -309 53 -67 166 -81 314 -39
132 38 419 184 634 324 102 66 186 118 188 116 2 -1 -15 -70 -38 -151 -46
-169 -96 -400 -105 -489 -7 -68 8 -108 41 -113 31 -4 76 53 139 177 186 372
554 858 671 887 61 16 70 -9 90 -240 16 -197 43 -332 74 -376 11 -16 41 -38
66 -50 98 -48 238 3 428 157 60 48 118 95 129 103 20 14 20 14 13 -5 -4 -11
-14 -51 -22 -88 -19 -91 -10 -160 27 -201 23 -27 34 -31 76 -31 69 1 117 28
209 119 96 97 133 148 199 281 l51 100 49 0 c28 -1 91 -6 141 -13 143 -19 445
12 528 55 25 13 27 17 14 29 -12 12 -33 13 -129 4 -63 -5 -162 -10 -221 -10
-111 0 -315 25 -334 41 -6 5 -14 41 -17 81 -7 81 -22 109 -80 147 -30 20 -37
30 -37 58 0 29 -3 33 -26 33 -54 0 -257 -235 -315 -363 -24 -52 -386 -337
-494 -388 -77 -37 -133 -38 -164 -5 -36 38 -60 145 -71 311 -18 257 -33 310
-96 340 -44 21 -70 19 -134 -11 -107 -50 -357 -346 -543 -644 -67 -107 -84
-127 -96 -115 -8 8 -6 27 4 65 8 30 31 119 50 197 20 78 46 168 59 200 13 32
56 157 95 278 157 483 424 1119 692 1651 70 138 128 260 129 270 7 63 -19 78
-58 35z m-6585 -1956 c28 -20 47 -78 38 -122 -13 -73 -470 -492 -524 -481 -41
9 17 154 122 307 67 98 229 261 287 289 54 26 50 26 77 7z m3694 5 c16 0 39
-58 39 -98 0 -54 -28 -90 -209 -264 -156 -150 -288 -252 -319 -246 -62 13 82
275 254 465 72 79 186 158 212 148 8 -3 18 -5 23 -5z m3863 -56 c22 -21 21
-74 -1 -74 -39 0 -73 70 -40 83 20 9 25 8 41 -9z m-88 -131 c85 -78 84 -71 29
-188 -86 -180 -245 -346 -316 -328 -27 8 -34 47 -20 118 16 76 84 252 117 300
13 20 30 51 38 68 12 31 62 97 73 97 2 0 38 -30 79 -67z"/>
</g>
</svg>
